<svg xmlns="http://www.w3.org/2000/svg" viewBox="0 0 1133.86 283.46"><defs><style>.cls-1{font-size:200px;font-family:Pacifico-Regular, Pacifico;}.cls-2{letter-spacing:-0.02em;}.cls-3{letter-spacing:0.03em;}</style></defs><title>brandVector</title><g id="Layer_2" data-name="Layer 2"><text class="cls-1" transform="translate(-852.71 209.67)"><tspan class="cls-2">f</tspan><tspan x="70.2" y="0">e</tspan><tspan class="cls-3" x="148.8" y="0">r</tspan><tspan x="245.79" y="0">til</tspan><tspan class="cls-2" x="438.79" y="0">i</tspan><tspan x="483.99" y="0">zer</tspan></text><path d="M258.84,162.07q0,15.8-24.8,15.8a76.21,76.21,0,0,1-13.8-1.8q2.59,12.41,4.3,27.5a231.37,231.37,0,0,1,1.7,24.9q0,21.6-7,33t-18.4,11.4q-14.4,0-20.5-20.4t-6.1-61.6a378.3,378.3,0,0,1,8.3-77.9q8.29-39.5,22.8-65.4t31.9-25.9q9.4,0,14.7,8.4t5.3,22.6q0,47-56.2,102.4-2,19.6-2,34.4,0,20.6,1.4,42.3t4.6,21.7q6,0,6-20.8a211.91,211.91,0,0,0-2.1-30.2q-2.1-14.59-5.7-30.8a13.76,13.76,0,0,1,1.7-6.6,27.34,27.34,0,0,1,4.7-7c1.87-2,3.53-3,5-3q4,0,9.6.4a39.42,39.42,0,0,0,4.2.2,127.36,127.36,0,0,0,17.8-1.4c1.07-.13,2.2-.27,3.4-.4a33.41,33.41,0,0,1,3.6-.2Q258.84,153.67,258.84,162.07Zm-34.7-108.4q-5.29,12.19-10.5,32.3t-9,42.5a145.9,145.9,0,0,0,24.6-37.9q8.59-19.69,8.8-36.9,0-12.2-5-12.2Q229.44,41.47,224.14,53.67Z"/><path d="M336.94,167.47a12.41,12.41,0,0,1,1.5,6.6q0,8-3.8,12.4-7.39,9-20.9,16.6a57.93,57.93,0,0,1-28.9,7.6q-21,0-32.6-11.4t-11.6-31.2a57.82,57.82,0,0,1,5.8-25.7,47.54,47.54,0,0,1,16.1-18.9,40.44,40.44,0,0,1,23.3-7q11.6,0,18.6,6.9t7,18.7a32.34,32.34,0,0,1-9.9,23.7q-9.9,9.9-33.5,15.7,5,9.19,19,9.2,9,0,20.5-6.3a67.66,67.66,0,0,0,19.9-16.5,7,7,0,0,1,5.4-2.8A4.63,4.63,0,0,1,336.94,167.47Zm-66.53-22.8q-5.1,8.6-5.1,20.8v.4q11.79-2.81,18.6-8.4t6.8-13a8.7,8.7,0,0,0-2.1-6.1,7.35,7.35,0,0,0-5.7-2.3Q275.5,136.07,270.41,144.67Z"/><path d="M325.74,202.67q-3.11-8-3.1-25.6a162.68,162.68,0,0,1,7.4-49.4,15,15,0,0,1,5.9-8.5q4.1-2.7,11.5-2.7,4,0,5.6,1c1.06.67,1.6,1.93,1.6,3.8q0,3.2-3,14.4-2,8-3.2,14a142.43,142.43,0,0,0-2,14.8q6.6-17.21,14.8-28t16.1-15.4q7.89-4.6,14.5-4.6,13,0,13,13,0,2.59-1.8,12.6a73.12,73.12,0,0,0-1.6,10q0,7,5,7,5.6,0,14.4-8.8a7.66,7.66,0,0,1,5.4-2.6,4.67,4.67,0,0,1,4.1,2.3,11,11,0,0,1,1.5,6.1q0,7.4-4,11.6a54.14,54.14,0,0,1-13.1,9.9,32.7,32.7,0,0,1-15.9,4.1q-10.6,0-16.1-5.4t-5.5-14.6a30.53,30.53,0,0,1,.6-6c.26-2.67.4-4.47.4-5.4,0-2.13-.74-3.2-2.2-3.2q-3,0-7.9,6.7a94,94,0,0,0-9.7,17.7,143.66,143.66,0,0,0-7.8,23.2q-2.2,9.41-5.1,12.7t-9.1,3.3Q328.84,210.67,325.74,202.67Z"/><path d="M512.54,167.47a12.41,12.41,0,0,1,1.5,6.6q0,8-3.81,12.4a84.85,84.85,0,0,1-18.8,17.4,41.2,41.2,0,0,1-23.39,6.8q-40.82,0-40.81-57.4c0-5.87.2-11.8.6-17.57H420c-4-.23-6.71-1-8.11-2.43s-2.1-3.8-2.1-7c0-7.47,3-11.2,9-10.57h11.4a190.59,190.59,0,0,1,10.41-40.83q7-18.2,16.9-29t21.29-10.8q8.4,0,13.21,7.4t4.79,18.6c0,20.67-8.66,38.67-26,54.63h22.4c2.14-.63,3.67-.16,4.6.77s1.4,2.67,1.4,5.2c0,9.2-7.53,13.8-22.59,14H452.23c-.26,6.44-.4,11.64-.4,15.37q0,20.81,4.9,29.2t15.5,8.4a23.82,23.82,0,0,0,15.2-5.2A121.76,121.76,0,0,0,503,167.87a7,7,0,0,1,5.39-2.8A4.63,4.63,0,0,1,512.54,167.47ZM466.73,61.77q-3.69,7.5-7,20.8a282.42,282.42,0,0,0-5.5,29.5,68.19,68.19,0,0,0,17.7-22.9q5.91-12.7,5.9-23.1,0-11.8-4.4-11.8Q470.43,54.27,466.73,61.77Z"/><path d="M503.53,201.47q-5.89-9.19-5.9-24.4a149.76,149.76,0,0,1,2.3-23.1,214.93,214.93,0,0,1,5.9-26.3q1.8-6.4,4.8-8.8t9.6-2.4q10.2,0,10.2,6.8,0,5-3.8,23.2-4.8,22-4.8,29.8,0,6,1.6,9.2a5.58,5.58,0,0,0,5.4,3.2q3.6,0,9-5a178.52,178.52,0,0,0,14.4-15.8,7,7,0,0,1,5.4-2.8,4.63,4.63,0,0,1,4.1,2.4,12.41,12.41,0,0,1,1.5,6.6q0,8-3.8,12.4-19.8,24.19-37,24.2Q509.43,210.67,503.53,201.47Zm7.9-102.1q-4.2-3.9-4.2-10.9a14.76,14.76,0,0,1,5.5-11.7,20.37,20.37,0,0,1,13.7-4.7q7.4,0,12,3.6t4.6,10.2q0,8-5.2,12.7t-13.8,4.7Q515.63,103.27,511.43,99.37Z"/><path d="M626.93,167.47a12.41,12.41,0,0,1,1.5,6.6q0,8-3.8,12.4a86.23,86.23,0,0,1-18.7,17.4,40.08,40.08,0,0,1-22.9,6.8q-17.6,0-26.1-16t-8.5-41.4q0-24.4,6.3-55.6t18.6-53.6q12.3-22.39,29.3-22.4,9.6,0,15.1,8.9t5.5,25.5q0,23.81-13.2,55.2a305.54,305.54,0,0,1-35.8,62.2q1.39,8.21,4.6,11.7a10.85,10.85,0,0,0,8.4,3.5,23.2,23.2,0,0,0,14.4-4.7q6.2-4.69,15.8-16.1a7,7,0,0,1,5.4-2.8A4.63,4.63,0,0,1,626.93,167.47Zm-39.1-109.4q-5.8,16.6-10.2,41.2a299,299,0,0,0-4.8,47.2,257.42,257.42,0,0,0,22.6-46.9q8.4-23.5,8.4-42.9,0-15.2-5.6-15.2Q593.63,41.47,587.83,58.07Z"/><path d="M617.93,201.47q-5.91-9.19-5.9-24.4a148.52,148.52,0,0,1,2.3-23.1,214.93,214.93,0,0,1,5.9-26.3q1.8-6.4,4.8-8.8t9.6-2.4q10.2,0,10.2,6.8,0,5-3.8,23.2-4.8,22-4.8,29.8,0,6,1.6,9.2a5.56,5.56,0,0,0,5.4,3.2q3.6,0,9-5a178.52,178.52,0,0,0,14.4-15.8,7,7,0,0,1,5.4-2.8,4.63,4.63,0,0,1,4.1,2.4,12.41,12.41,0,0,1,1.5,6.6q0,8-3.8,12.4-19.8,24.19-37,24.2Q623.82,210.67,617.93,201.47Zm7.9-102.1q-4.2-3.9-4.2-10.9a14.76,14.76,0,0,1,5.5-11.7,20.35,20.35,0,0,1,13.7-4.7q7.39,0,12,3.6t4.6,10.2q0,8-5.2,12.7t-13.8,4.7Q630,103.27,625.83,99.37Z"/><path d="M761.33,167.47a12.41,12.41,0,0,1,1.5,6.6,19.92,19.92,0,0,1-3.8,12.4,67.32,67.32,0,0,1-23.3,19.2,68.71,68.71,0,0,1-31.3,7q-13.6,0-23.6-4.1t-15.3-11.2a25.88,25.88,0,0,1-5.3-15.9q0-13.2,10.6-23.4t30.4-19.6l-32.8.8a7.21,7.21,0,0,1-6.7-3.1,13.41,13.41,0,0,1-2.3-7.9,15.72,15.72,0,0,1,2.3-8.5,7.08,7.08,0,0,1,6.3-3.7q9.19,0,24.6,1.4,3.2.19,11.7.8t14.3.6a34.37,34.37,0,0,0,7.6-1.6c.66-.13,2-.47,3.9-1a19.08,19.08,0,0,1,4.9-.8,6.37,6.37,0,0,1,5.3,2.8c1.4,1.87,2.1,4.73,2.1,8.6q0,6.4-3,10t-9.4,6.4q-18.21,7.8-30.2,16.7t-12,17.7q0,5.6,5.2,9.2t15.4,3.6a51.63,51.63,0,0,0,22.7-5.6,61.13,61.13,0,0,0,20.7-17,7,7,0,0,1,5.4-2.8A4.63,4.63,0,0,1,761.33,167.47Z"/><path d="M839.73,167.47a12.41,12.41,0,0,1,1.5,6.6q0,8-3.81,12.4-7.39,9-20.9,16.6a57.93,57.93,0,0,1-28.9,7.6q-21,0-32.6-11.4t-11.6-31.2a57.83,57.83,0,0,1,5.81-25.7,47.51,47.51,0,0,1,16.09-18.9,40.49,40.49,0,0,1,23.3-7q11.61,0,18.61,6.9t7,18.7a32.34,32.34,0,0,1-9.91,23.7q-9.89,9.9-33.5,15.7,5,9.19,19,9.2,9,0,20.5-6.3a67.83,67.83,0,0,0,19.91-16.5,7,7,0,0,1,5.39-2.8A4.63,4.63,0,0,1,839.73,167.47Zm-67.32-22.8q-5.1,8.6-5.1,20.8v.4q11.79-2.81,18.6-8.4t6.8-13a8.7,8.7,0,0,0-2.1-6.1,7.35,7.35,0,0,0-5.7-2.3Q777.5,136.07,772.41,144.67Z"/><path d="M828.52,202.67q-3.1-8-3.1-25.6a163,163,0,0,1,7.4-49.4,15,15,0,0,1,5.9-8.5q4.1-2.7,11.5-2.7c2.67,0,4.53.33,5.6,1s1.6,1.93,1.6,3.8q0,3.2-3,14.4-2,8-3.2,14a142.43,142.43,0,0,0-2,14.8q6.6-17.21,14.8-28t16.1-15.4q7.9-4.6,14.5-4.6,13,0,13,13,0,2.59-1.8,12.6a73.12,73.12,0,0,0-1.6,10q0,7,5,7,5.6,0,14.4-8.8a7.66,7.66,0,0,1,5.4-2.6,4.67,4.67,0,0,1,4.1,2.3,11,11,0,0,1,1.5,6.1q0,7.4-4,11.6a54,54,0,0,1-13.1,9.9,32.7,32.7,0,0,1-15.9,4.1q-10.61,0-16.1-5.4t-5.5-14.6a30.53,30.53,0,0,1,.6-6c.27-2.67.4-4.47.4-5.4,0-2.13-.73-3.2-2.2-3.2q-3,0-7.9,6.7a94,94,0,0,0-9.7,17.7,143.66,143.66,0,0,0-7.8,23.2q-2.2,9.41-5.1,12.7t-9.1,3.3Q831.62,210.67,828.52,202.67Z"/></g></svg>