<svg xmlns="http://www.w3.org/2000/svg" xmlns:xlink="http://www.w3.org/1999/xlink" viewBox="0 0 1303.94 425.2"><defs><style>.cls-1{fill:none;}.cls-2{clip-path:url(#clip-path);}.cls-3{fill:#b35c4b;}.cls-4{fill:#8b432d;}.cls-5{fill:#7fbf00;}.cls-6{fill:#6ecd24;}.cls-7{fill:#66bd21;}.cls-8{fill:#5dad1d;}.cls-9{font-size:200px;font-family:Pacifico-Regular, Pacifico;}.cls-10{letter-spacing:-0.02em;}.cls-11{letter-spacing:0.03em;}</style><clipPath id="clip-path"><circle class="cls-1" cx="276.01" cy="99.64" r="312.58"/></clipPath></defs><title>portal</title><g id="Layer_2" data-name="Layer 2"><g class="cls-2"><path class="cls-3" d="M428.86,326l-50.7,118.49-105-2.69-120-3-30-121.49a75.15,75.15,0,0,1,55.5-30,104.42,104.42,0,0,1,189,0A76.23,76.23,0,0,1,428.86,326Z"/><path class="cls-4" d="M428.86,326l-50.7,118.49-105-2.69V227.33a104.81,104.81,0,0,1,94.5,60A76.23,76.23,0,0,1,428.86,326Z"/><path class="cls-5" d="M363.16,197.33h-60a15,15,0,0,1-15-15v-30c0-57.89,47.11-107,105-107a57.79,57.79,0,0,0,40.6-16.81l8.79-8.79a15,15,0,0,1,25.61,10.6v62A105.13,105.13,0,0,1,363.16,197.33Z"/><path class="cls-6" d="M243.16,197.33h-60a105.13,105.13,0,0,1-105-105v-62a15,15,0,0,1,25.61-10.6l8.79,8.79a57.81,57.81,0,0,0,40.6,16.81c57.89,0,105,49.11,105,107v30A15,15,0,0,1,243.16,197.33Z"/><path class="cls-7" d="M388.06,133.73l-73.8,63a75.68,75.68,0,0,0-26.1,57v48.6a15,15,0,0,1-30,0v-48.6a75.68,75.68,0,0,0-26.1-57l-73.8-63a15.1,15.1,0,0,1,19.8-22.8l73.5,63a109.73,109.73,0,0,1,21.6,27,109.73,109.73,0,0,1,21.6-27l73.5-63a15.1,15.1,0,1,1,19.8,22.8Z"/><path class="cls-8" d="M388.06,133.73l-73.8,63a75.68,75.68,0,0,0-26.1,57v48.6a14.85,14.85,0,0,1-15,15V200.93a109.73,109.73,0,0,1,21.6-27l73.5-63a15.1,15.1,0,1,1,19.8,22.8Z"/><path class="cls-7" d="M306.16,336.83a15.24,15.24,0,0,1-5.1.9,15,15,0,0,1-14.1-10.2c-1.2-3.9-5.7-10.2-13.8-10.2s-12.6,6.3-13.8,10.2a15.09,15.09,0,0,1-28.5-9.9c5.4-15,20.4-30.3,42.3-30.3s36.9,15.3,42.3,30.3A15.19,15.19,0,0,1,306.16,336.83Z"/><path class="cls-8" d="M306.16,336.83a15.24,15.24,0,0,1-5.1.9,15,15,0,0,1-14.1-10.2c-1.2-3.9-5.7-10.2-13.8-10.2v-30c21.9,0,36.9,15.3,42.3,30.3A15.19,15.19,0,0,1,306.16,336.83Z"/></g><text class="cls-9" transform="translate(471.23 280.53)"><tspan class="cls-10">f</tspan><tspan x="70.2" y="0">e</tspan><tspan class="cls-11" x="148.8" y="0">r</tspan><tspan x="245.79" y="0">til</tspan><tspan class="cls-10" x="438.79" y="0">i</tspan><tspan x="483.99" y="0">zer</tspan></text></g></svg>